<svg width="479" height="90" viewBox="0 0 479 90" fill="none" xmlns="http://www.w3.org/2000/svg">
<g clip-path="url(#clip0_101_2)">
<path fill-rule="evenodd" clip-rule="evenodd" d="M46.646 86.974L45.301 86.966L44.419 58.716L57.054 60.094C56.9955 57.4736 56.9955 54.8523 57.054 52.232L44.68 53.95C44.68 53.95 46.69 49.47 47.633 47.449C48.576 45.429 50.202 42.233 50.399 39.589C50.596 36.943 50.584 35.359 49.155 33.772C47.918 32.396 46.55 31.626 43.463 31.452C40.375 31.279 38.063 32.178 36.857 32.894C35.652 33.61 33.463 35.566 33.416 38.827C33.369 42.088 35.132 44.775 36.172 46.843C37.212 48.91 39.683 53.95 39.683 53.95C39.683 53.95 27.81 52.243 27.611 52.232C27.412 52.22 27.611 60.094 27.611 60.094L39.683 58.716L36.406 86.718C36.0795 86.695 35.7528 86.6733 35.426 86.653C34.026 86.564 31.793 86.437 28.726 86.27C24.801 86.057 21.131 85.95 17.718 85.95C14.4962 85.9455 11.2746 85.9882 8.05403 86.078C5.58803 86.151 3.83603 86.225 2.79903 86.299C2.65203 86.309 2.50503 86.321 2.35803 86.334L3.25403 78.014C4.22951 77.8523 5.17425 77.5413 6.05503 77.092C6.81644 76.698 7.51234 76.1887 8.11803 75.582C9.39803 74.302 10.593 72.212 11.702 69.31L34.614 4.41397L54.198 2.36597L55.606 3.00597C55.951 4.31397 56.297 5.62197 56.645 6.92997C58.2625 12.9996 59.8872 19.0672 61.519 25.133C62.214 27.72 62.909 30.307 63.606 32.894C67.232 46.367 70.397 57.467 73.101 66.194C73.41 67.191 73.722 68.187 74.038 69.182C74.294 70.031 74.596 70.865 74.942 71.681C75.709 73.467 76.602 74.81 77.622 75.71C78.2793 76.2771 79.0266 76.7306 79.833 77.052C81.028 77.545 82.467 77.865 84.15 78.014L84.662 78.91L83.766 86.334C82.856 86.264 81.285 86.194 79.053 86.124C78.533 86.108 78.013 86.092 77.494 86.078C74.3801 85.9921 71.2651 85.9494 68.15 85.95C63.627 85.95 59.211 86.1 54.902 86.398C52.1877 86.5867 49.4733 86.7761 46.759 86.966L46.646 86.974V86.974Z" fill="black" stroke="black" stroke-width="0.94" stroke-linecap="round"/>
<path fill-rule="evenodd" clip-rule="evenodd" d="M130.164 77.634L121.588 60.866H114.42L114.292 70.722C114.292 73.026 114.463 74.6686 114.804 75.65C114.953 76.099 115.199 76.509 115.525 76.851C115.85 77.1863 116.256 77.4416 116.741 77.617L116.788 77.634C117.769 77.9753 119.455 78.1886 121.844 78.274L122.356 78.914L121.204 85.698C120.801 85.6735 120.398 85.6535 119.995 85.638C118.728 85.588 116.988 85.5476 114.775 85.517L113.972 85.506C111.596 85.4766 109.432 85.4573 107.479 85.448C106.635 85.444 105.792 85.442 104.948 85.442C102.217 85.442 99.4014 85.5273 96.5 85.698C93.5987 85.8686 91.7214 85.9966 90.868 86.082L91.764 78.658C94.0854 78.3846 95.792 77.852 96.884 77.06C97.144 76.875 97.38 76.66 97.588 76.418C97.943 75.988 98.221 75.499 98.411 74.975C98.8437 73.839 99.06 72.336 99.06 70.466L99.188 32.962C99.188 31.17 98.9534 29.954 98.484 29.314C98.1134 28.8086 97.5164 28.5026 96.693 28.396C96.4592 28.3669 96.2237 28.3529 95.988 28.354L92.276 28.482L91.508 27.586L92.532 21.058L106.1 21.186C109.087 21.186 112.287 21.122 115.7 20.994C116.488 20.964 117.276 20.934 118.064 20.902C120.012 20.8233 121.499 20.7543 122.525 20.695L122.868 20.674C125.262 20.664 127.655 20.802 130.032 21.09C132.387 21.3866 134.529 21.842 136.458 22.456C138.489 23.0781 140.421 23.9866 142.196 25.154C143.98 26.3021 145.487 27.8317 146.608 29.6325C147.73 31.4333 148.438 33.4605 148.681 35.568C148.797 36.444 148.854 37.327 148.852 38.21C148.852 42.1353 147.657 45.7193 145.268 48.962C143.887 50.8102 142.244 52.4477 140.391 53.823C138.78 55.0383 136.949 56.1486 134.9 57.154L143.476 70.338C145.524 73.3246 147.444 75.5006 149.236 76.866C151.028 78.2313 152.948 78.914 154.996 78.914L155.892 80.066L154.996 85.826L141.812 86.85C137.299 86.85 133.672 84.2956 130.933 79.187C130.661 78.6774 130.404 78.1595 130.164 77.634V77.634ZM114.804 50.882L123.892 51.906C129.609 49.858 132.468 45.9326 132.468 40.13C132.478 39.09 132.344 38.055 132.068 37.053C131.553 35.1873 130.376 33.5734 128.756 32.514C127.797 31.8867 126.753 31.3995 125.656 31.067C123.668 30.4376 121.229 30.0913 118.34 30.028C118.015 30.021 117.69 30.018 117.364 30.018C116.681 30.018 116.233 30.1673 116.02 30.466C115.957 30.558 115.906 30.656 115.868 30.761C115.74 31.0896 115.644 31.5793 115.581 32.23L115.572 32.322C115.132 38.3353 114.881 43.75 114.819 48.566C114.809 49.338 114.804 50.11 114.804 50.882V50.882Z" fill="black" stroke="black" stroke-width="0.94" stroke-linecap="round"/>
<path fill-rule="evenodd" clip-rule="evenodd" d="M327.444 59.3201L327.188 32.5681C327.121 31.2961 326.923 30.3391 326.593 29.6971C326.511 29.5335 326.41 29.3801 326.292 29.2401C326.038 28.9507 325.714 28.7302 325.352 28.5991C324.909 28.4291 324.369 28.3441 323.732 28.3441H320.148L319.764 27.4481L320.404 20.7921C321.244 20.8621 322.688 20.9321 324.735 21.0021C325.211 21.0181 325.688 21.0341 326.164 21.0481C328.98 21.1334 331.839 21.1761 334.74 21.1761C337.556 21.1761 340.201 21.1121 342.676 20.9841C343.179 20.9581 343.681 20.9311 344.184 20.9031C345.84 20.8104 347.001 20.7307 347.668 20.6641L347.156 27.9601C344.852 28.3014 343.209 28.9414 342.228 29.8801C341.742 30.3558 341.367 30.9333 341.13 31.5711C340.949 32.0377 340.815 32.5591 340.73 33.1351C340.677 33.4991 340.643 33.8651 340.628 34.2321L339.092 86.3281L326.42 87.6081C319.935 78.0507 313.855 69.3254 308.18 61.4321L305.206 57.2961C301.375 51.9667 298.809 48.3994 297.51 46.5941L297.364 46.3921H296.212V73.6561C296.212 75.4481 296.489 76.6854 297.044 77.3681C297.312 77.6891 297.657 77.9371 298.048 78.0861C298.552 78.2901 299.177 78.3921 299.924 78.3921C300.692 78.3921 301.524 78.3494 302.42 78.2641C303.197 78.1901 303.765 78.1481 304.125 78.1381L304.276 78.1361L304.916 78.7761L303.764 85.6881C303.474 85.6881 303.185 85.6841 302.896 85.6771C302.05 85.6597 300.896 85.6204 299.433 85.5591C298.957 85.5391 298.48 85.5181 298.004 85.4961C295.188 85.3681 292.415 85.3041 289.684 85.3041C288.146 85.3058 286.609 85.3435 285.073 85.4171C283.943 85.4701 282.813 85.5391 281.684 85.6241L279.952 85.7551C278.505 85.8657 277.416 85.9537 276.686 86.0191C276.496 86.0361 276.306 86.0531 276.116 86.0721L277.012 78.7761C279.091 78.5267 280.603 77.9531 281.548 77.0551L281.62 76.9841C282.035 76.5581 282.362 76.0541 282.58 75.5001C282.763 75.0554 282.904 74.5551 283.001 73.9991C283.086 73.5051 283.137 73.0051 283.156 72.5041L284.564 34.3601C284.567 33.8381 284.528 33.3167 284.447 32.8011C284.359 32.2691 284.222 31.7961 284.035 31.3821C283.789 30.8114 283.398 30.3154 282.9 29.9441C282.561 29.7062 282.196 29.5086 281.812 29.3551C280.605 28.8504 278.818 28.4424 276.451 28.1311C276.339 28.1164 276.228 28.102 276.116 28.0881L275.22 27.0641L275.988 20.6641C276.166 20.6841 276.345 20.7001 276.524 20.7141C277.412 20.7874 278.901 20.8734 280.99 20.9721L281.236 20.9841C283.967 21.1121 286.484 21.1761 288.788 21.1761C291.263 21.1761 293.524 21.1334 295.572 21.0481C297.339 20.9747 298.597 20.9011 299.348 20.8271C299.455 20.8171 299.561 20.8051 299.668 20.7921C304.959 29.0694 310.313 37.0267 315.732 44.6641C321.141 52.2881 324.659 57.1697 326.284 59.3091L326.292 59.3201H327.444V59.3201Z" fill="black" stroke="black" stroke-width="0.94" stroke-linecap="round"/>
<path fill-rule="evenodd" clip-rule="evenodd" d="M354.954 86.328L355.722 78.904C358.623 78.5627 360.586 77.7734 361.61 76.536C362.513 75.4454 363.017 73.6747 363.124 71.224C363.139 70.883 363.146 70.5411 363.146 70.2001L363.274 33.72C363.275 33.2585 363.263 32.797 363.239 32.336C363.162 30.9554 362.961 29.9874 362.634 29.432C362.422 29.0815 362.103 28.8078 361.725 28.651C361.264 28.4464 360.671 28.344 359.946 28.344L356.874 28.472L356.106 27.448L357.002 20.92C357.391 20.92 357.78 20.923 358.169 20.927C359.316 20.939 360.894 20.9654 362.905 21.006C363.561 21.019 364.218 21.033 364.874 21.048C368.757 21.1334 372.917 21.176 377.354 21.176C392.458 21.176 403.21 20.792 409.61 20.024L410.506 21.176C410.437 21.48 410.374 21.785 410.317 22.091C410.124 23.095 409.879 24.5647 409.58 26.5C409.482 27.136 409.385 27.772 409.29 28.408C408.735 32.12 408.33 35.9387 408.074 39.864L397.45 40.504C397.45 40.2947 397.478 39.9004 397.535 39.321L397.578 38.904C397.663 38.0934 397.706 37.304 397.706 36.536C397.706 35.0114 397.509 33.8524 397.115 33.059C397.03 32.8856 396.928 32.7211 396.81 32.568C396.572 32.2716 396.281 32.0217 395.952 31.831C395.401 31.4997 394.68 31.24 393.79 31.052C393.645 31.022 393.5 30.993 393.354 30.968C391.647 30.6694 388.831 30.52 384.906 30.52C383.034 30.52 381.739 30.6327 381.022 30.858C380.881 30.899 380.745 30.958 380.618 31.032C380.163 31.312 379.866 31.9357 379.727 32.903C379.695 33.1317 379.672 33.3615 379.658 33.592L379.018 48.056H388.49C390.026 48.056 392.202 47.9494 395.018 47.736L396.731 47.605C398.17 47.4944 399.273 47.4064 400.04 47.341L400.65 47.288L401.674 48.44L400.138 57.656C399.872 57.656 399.607 57.653 399.341 57.649C398.562 57.637 397.498 57.6107 396.147 57.57L394.826 57.528C392.223 57.4427 389.471 57.4 386.57 57.4C384.266 57.4 381.621 57.6134 378.634 58.04C378.463 62.136 378.378 66.3174 378.378 70.584C378.378 72.4614 378.506 73.784 378.762 74.552C378.977 75.212 379.465 75.746 380.102 76.021C380.208 76.07 380.316 76.114 380.426 76.152C381.074 76.3787 382.066 76.5194 383.402 76.574C383.86 76.592 384.319 76.601 384.778 76.6C389.045 76.6 392.159 76.3227 394.122 75.768C396.085 75.2134 397.493 74.1894 398.346 72.696C398.612 72.219 398.839 71.721 399.025 71.208C399.437 70.1034 399.798 68.7154 400.109 67.044C400.214 66.4764 400.309 65.907 400.394 65.336L410.122 64.568L411.146 65.72C411.087 65.96 411.033 66.2 410.982 66.44C410.725 67.6414 410.351 69.678 409.86 72.55L409.802 72.888C409.317 75.7495 408.905 78.6228 408.565 81.5051C408.435 82.6001 408.314 83.695 408.202 84.792L407.05 85.944C405.307 85.874 401.899 85.7757 396.825 85.649L393.162 85.56C389.826 85.48 386.49 85.416 383.153 85.37C379.988 85.3274 376.994 85.3054 374.171 85.304H373.898C369.887 85.304 366.005 85.4534 362.25 85.752L359.976 85.933C358.076 86.0837 356.649 86.1961 355.696 86.2701L354.954 86.328V86.328Z" fill="black" stroke="black" stroke-width="0.94" stroke-linecap="round"/>
<path fill-rule="evenodd" clip-rule="evenodd" d="M186.694 51.326L201.542 36.094C201.989 35.652 202.402 35.177 202.779 34.674C203.139 34.1972 203.443 33.6804 203.684 33.134C203.952 32.535 204.094 31.887 204.102 31.23C204.106 30.919 204.062 30.61 203.971 30.312C203.794 29.7477 203.405 29.274 202.886 28.99C202.613 28.8367 202.323 28.7136 202.023 28.623C201.295 28.4405 200.551 28.3316 199.801 28.298L199.366 27.774L200.566 20.734C200.863 20.734 204.483 20.904 204.934 20.926C207.622 21.054 210.289 21.118 212.934 21.118C215.409 21.118 217.926 21.054 220.486 20.926C221.041 20.898 221.596 20.872 222.152 20.846C223.822 20.772 225.015 20.734 225.734 20.734L226.63 21.886L225.734 28.03C223.515 28.969 221.361 30.355 219.27 32.19C218.549 32.827 217.847 33.486 217.166 34.166C215.75 35.573 214.162 37.286 212.403 39.303C212.109 39.64 211.817 39.978 211.526 40.318L201.926 50.43L214.982 69.886C215.575 70.781 216.2 71.6549 216.855 72.506C218.2 74.244 219.475 75.568 220.678 76.478C222.44 77.8068 224.555 78.5861 226.758 78.718L227.526 79.742L226.63 85.63C225.435 85.715 223.43 85.907 220.614 86.206C217.798 86.505 215.451 86.696 213.574 86.782C211.27 86.782 209.201 86.121 207.366 84.798C206.038 83.841 204.699 82.47 203.348 80.685C202.804 79.9632 202.287 79.2217 201.798 78.462L186.438 53.758L186.694 51.326ZM165.574 28.286H162.502L161.862 27.262L162.758 20.99L177.478 21.118C178.915 21.118 180.84 21.068 183.253 20.968C184.037 20.935 184.822 20.9 185.606 20.862C185.79 20.859 186.545 20.817 187.872 20.734C188.13 20.718 190.436 20.616 190.694 20.598L190.2 27.774C190.2 27.774 189.19 28.07 188.559 28.383C187.928 28.695 187.422 28.975 186.95 29.491C186.478 30.008 186.305 30.334 186.113 30.771C185.804 31.438 185.618 32.288 185.553 33.321L185.542 33.534L184.518 71.422C184.45 73.595 184.585 75.188 184.922 76.199C184.996 76.431 185.097 76.653 185.222 76.862C185.655 77.562 186.414 77.989 187.499 78.142C187.826 78.186 188.156 78.208 188.486 78.206C189.51 78.206 190.385 78.163 191.11 78.078C191.789 77.998 192.225 77.956 192.418 77.951L192.454 77.95L192.966 78.718L192.07 85.502C191.09 85.502 189.435 85.473 187.104 85.416L185.478 85.374C182.278 85.289 179.228 85.246 176.326 85.246C173.083 85.246 169.99 85.289 167.046 85.374C164.63 85.444 162.861 85.485 161.738 85.498C161.523 85.5 161.308 85.502 161.094 85.502L162.118 78.59C162.765 78.4995 163.408 78.3841 164.046 78.244C165.28 77.969 166.258 77.627 166.981 77.216C167.338 77.022 167.662 76.773 167.942 76.478C168.234 76.145 168.464 75.763 168.622 75.35C168.937 74.572 169.14 73.553 169.231 72.292C169.269 71.747 169.287 71.2 169.286 70.654L169.414 33.406C169.414 32.975 169.403 32.543 169.377 32.113C169.29 30.702 169.046 29.746 168.646 29.246C168.192 28.678 167.335 28.362 166.074 28.298C165.907 28.2898 165.741 28.2858 165.574 28.286V28.286Z" fill="black" stroke="black" stroke-width="0.94" stroke-linecap="round"/>
<path fill-rule="evenodd" clip-rule="evenodd" d="M233.676 86.022L234.444 78.982C235.131 78.8506 235.813 78.6921 236.488 78.507C238.425 77.9683 239.749 77.2946 240.46 76.486C241.399 75.4193 241.868 73.478 241.868 70.662L241.996 33.414C241.997 32.971 241.983 32.529 241.954 32.087C241.862 30.7636 241.62 29.8406 241.228 29.318C241.01 29.038 240.725 28.818 240.399 28.677C239.931 28.4623 239.327 28.338 238.587 28.304C238.443 28.2973 238.3 28.294 238.156 28.294H234.7L234.188 27.27L234.828 20.998L250.06 21.126C251.497 21.126 253.46 21.076 255.948 20.976C256.758 20.943 257.569 20.908 258.38 20.87C261.377 20.7306 263.549 20.6196 264.895 20.537L265.676 20.486L265.036 27.782C264.464 27.854 263.894 27.944 263.327 28.05C261.631 28.3726 260.473 28.7953 259.852 29.318C259.542 29.588 259.286 29.917 259.102 30.285C258.785 30.891 258.564 31.6743 258.438 32.635C258.415 32.809 258.396 32.983 258.38 33.158C257.527 45.702 257.1 58.4593 257.1 71.43C257.1 74.1606 257.356 75.974 257.868 76.87C258.263 77.5613 258.989 77.986 260.044 78.144C260.384 78.193 260.725 78.216 261.068 78.214C261.813 78.214 262.472 78.1946 263.044 78.156C263.304 78.139 263.562 78.116 263.82 78.086C263.977 78.067 264.134 78.05 264.291 78.033C264.762 77.983 265.096 77.958 265.292 77.958L265.932 78.726L265.036 85.51C264.699 85.51 264.361 85.507 264.024 85.503C263.036 85.491 261.689 85.4646 259.984 85.424L258.316 85.382C255.031 85.2966 251.895 85.254 248.908 85.254C247.207 85.254 245.304 85.3043 243.199 85.405C242.2 85.453 241.202 85.51 240.204 85.574L238.185 85.705C236.496 85.8156 235.219 85.9036 234.354 85.969C234.128 85.986 233.902 86.003 233.676 86.022V86.022Z" fill="black" stroke="black" stroke-width="0.94" stroke-linecap="round"/>
<path fill-rule="evenodd" clip-rule="evenodd" d="M427.326 86.0141L428.094 78.5901C430.656 78.3881 432.658 78.0931 434.1 77.7041C434.45 77.6121 434.795 77.5011 435.134 77.3741C435.622 77.1921 436.084 76.9471 436.508 76.6441C437.193 76.1552 437.717 75.4737 438.014 74.6861C438.16 74.2891 438.274 73.8801 438.354 73.4651C438.597 72.2741 438.718 70.6971 438.718 68.7341V30.0781C436.066 30.1441 433.994 30.3651 432.5 30.7411C432.112 30.8359 431.73 30.9565 431.358 31.1021C430.165 31.5804 429.176 32.459 428.56 33.5871C428.382 33.8995 428.227 34.224 428.094 34.5581C427.888 35.0854 427.713 35.6239 427.568 36.1711C427.568 36.1711 427.154 38.2161 427.04 39.1361L416.81 39.8331C416.918 38.2251 417.032 36.4881 417.15 34.6221C417.449 29.8861 417.64 25.4271 417.726 21.2461L419.006 19.9661L429.886 21.1181H462.91L474.046 19.9661L475.326 21.2461C475.412 25.5981 475.561 30.0361 475.774 34.5581C475.811 35.3491 475.834 35.3481 475.887 36.9311C475.94 38.5141 475.887 39.8331 475.887 39.8331L465.807 39.1361C465.753 37.8761 465.407 36.3501 464.767 34.5581C464.578 34.0167 464.331 33.4976 464.029 33.0101C463.632 32.3791 463.159 31.8751 462.613 31.4981C462.346 31.3141 462.059 31.1599 461.758 31.0381C461.326 30.8686 460.881 30.7342 460.428 30.6361C459.5 30.4261 458.343 30.2721 456.958 30.1761C456.255 30.1283 455.551 30.0957 454.846 30.0781C454.324 37.5261 454.001 47.3001 453.878 59.4001C453.84 63.3221 453.821 67.2441 453.822 71.1661C453.822 73.2191 454.116 74.7721 454.703 75.8271C454.818 76.0351 454.951 76.2311 455.103 76.4141C455.503 76.8811 456.013 77.2421 456.587 77.4631C457.009 77.6351 457.487 77.7611 458.021 77.8421C458.538 77.9171 459.06 77.9531 459.582 77.9501C460.681 77.9501 461.669 77.9221 462.546 77.8671C462.753 77.8541 462.96 77.8391 463.166 77.8221C464.19 77.7371 464.83 77.6941 465.086 77.6941L465.47 78.2061L464.574 85.7581C464.153 85.7341 463.732 85.7121 463.31 85.6921C461.087 85.5936 458.863 85.509 456.638 85.4381C452.798 85.3101 449.128 85.2461 445.63 85.2461C443.156 85.2461 439.828 85.3531 435.646 85.5661L433.104 85.6971C431.178 85.7962 429.252 85.9019 427.326 86.0141V86.0141Z" fill="black" stroke="black" stroke-width="0.94" stroke-linecap="round"/>
</g>
<defs>
<clipPath id="clip0_101_2">
<rect width="478.27" height="89.97" fill="white"/>
</clipPath>
</defs>
</svg>
