<svg xmlns="http://www.w3.org/2000/svg" xml:space="preserve" viewBox="8.9 205.33 478.27 89.97">
<path style="stroke:#000;stroke-width:.94;stroke-dasharray:none;stroke-linecap:round;stroke-dashoffset:0;stroke-linejoin:miter;stroke-miterlimit:4;fill:#000;fill-rule:evenodd;opacity:1" vector-effect="non-scaling-stroke" transform="translate(52.41 250)" d="m3.136 42.304-1.345-.008-.882-28.25 12.635 1.378a176.17 176.17 0 0 1 0-7.862L1.17 9.28S3.18 4.8 4.123 2.779c.943-2.02 2.569-5.216 2.766-7.86.197-2.646.185-4.23-1.244-5.817-1.237-1.376-2.605-2.146-5.692-2.32-3.088-.173-5.4.726-6.606 1.442-1.205.716-3.394 2.672-3.441 5.933-.047 3.261 1.716 5.948 2.756 8.016C-6.298 4.24-3.827 9.28-3.827 9.28S-15.7 7.573-15.899 7.562c-.199-.012 0 7.862 0 7.862l12.072-1.378-3.277 28.002a124.36 124.36 0 0 0-.98-.065c-1.4-.089-3.633-.216-6.7-.383-3.925-.213-7.595-.32-11.008-.32a330.214 330.214 0 0 0-9.664.128c-2.466.073-4.218.147-5.255.221-.147.01-.294.022-.441.035l.896-8.32a9.627 9.627 0 0 0 2.801-.922 8.313 8.313 0 0 0 2.063-1.51c1.28-1.28 2.475-3.37 3.584-6.272l22.912-64.896 19.584-2.048 1.408.64c.345 1.308.691 2.616 1.039 3.924a7963.399 7963.399 0 0 0 4.874 18.203c.695 2.587 1.39 5.174 2.087 7.761 3.626 13.473 6.791 24.573 9.495 33.3.309.997.621 1.993.937 2.988.256.849.558 1.683.904 2.499.767 1.786 1.66 3.129 2.68 4.029a7.811 7.811 0 0 0 2.211 1.342c1.195.493 2.634.813 4.317.962l.512.896-.896 7.424c-.91-.07-2.481-.14-4.713-.21-.52-.016-1.04-.032-1.559-.046a336.556 336.556 0 0 0-9.344-.128c-4.523 0-8.939.15-13.248.448a18908.193 18908.193 0 0 0-8.143.568l-.113.008z"/>
<path style="stroke:#000;stroke-width:.94;stroke-dasharray:none;stroke-linecap:round;stroke-dashoffset:0;stroke-linejoin:miter;stroke-miterlimit:4;fill:#000;fill-rule:evenodd;opacity:1" vector-effect="non-scaling-stroke" transform="translate(13.88 207.06)" d="m125.184 75.904-8.576-16.768h-7.168l-.128 9.856q0 3.456.512 4.928c.149.449.395.859.721 1.201q.488.503 1.216.766l.047.017q1.472.512 5.056.64l.512.64-1.152 6.784a54.211 54.211 0 0 0-1.209-.06q-1.901-.075-5.22-.121l-.803-.011q-3.564-.044-6.493-.058c-.844-.004-1.687-.006-2.531-.006q-4.096 0-8.448.256t-5.632.384l.896-7.424q3.482-.41 5.12-1.598c.26-.185.496-.4.704-.642.355-.43.633-.919.823-1.443q.649-1.704.649-4.509l.128-37.504q0-2.688-.704-3.648-.556-.758-1.791-.918a5.519 5.519 0 0 0-.705-.042l-3.712.128-.768-.896 1.024-6.528 13.568.128q4.48 0 9.6-.192c.788-.03 1.576-.06 2.364-.092q2.922-.118 4.461-.207l.343-.021c2.394-.01 4.787.128 7.164.416q3.532.445 6.426 1.366a22.357 22.357 0 0 1 5.738 2.698 14.341 14.341 0 0 1 6.485 10.414c.116.876.173 1.759.171 2.642q0 5.888-3.584 10.752a23.793 23.793 0 0 1-4.877 4.861q-2.417 1.823-5.491 3.331l8.576 13.184q3.072 4.48 5.76 6.528 2.688 2.048 5.76 2.048l.896 1.152-.896 5.76-13.184 1.024q-6.77 0-10.879-7.663a27.783 27.783 0 0 1-.769-1.553zm-15.36-26.752 9.088 1.024q8.576-3.072 8.576-11.776c.01-1.04-.124-2.075-.4-3.077a7.95 7.95 0 0 0-3.312-4.539 12.055 12.055 0 0 0-3.1-1.447q-2.982-.944-7.316-1.039c-.325-.007-.65-.01-.976-.01q-1.024 0-1.344.448c-.063.092-.114.19-.152.295q-.192.493-.287 1.469l-.009.092q-.66 9.02-.753 16.244c-.01.772-.015 1.544-.015 2.316z"/>
<path style="stroke:#000;stroke-width:.94;stroke-dasharray:none;stroke-linecap:round;stroke-dashoffset:0;stroke-linejoin:miter;stroke-miterlimit:4;fill:#000;fill-rule:evenodd;opacity:1" vector-effect="non-scaling-stroke" transform="translate(14.04 207.05)" d="m322.304 57.6-.256-26.752q-.1-1.908-.595-2.871a2.346 2.346 0 0 0-.301-.457 2.29 2.29 0 0 0-.94-.641q-.664-.255-1.62-.255h-3.584l-.384-.896.64-6.656q1.26.105 4.331.21c.476.016.953.032 1.429.046q4.224.128 8.576.128 4.224 0 7.936-.192c.503-.026 1.005-.053 1.508-.081q2.484-.139 3.484-.239l-.512 7.296q-3.456.512-4.928 1.92a4.608 4.608 0 0 0-1.098 1.691q-.272.7-.4 1.564c-.053.364-.087.73-.102 1.097l-1.536 52.096-12.672 1.28q-9.728-14.336-18.24-26.176l-2.974-4.136q-5.747-7.994-7.696-10.702l-.146-.202h-1.152v27.264q0 2.688.832 3.712c.268.321.613.569 1.004.718q.756.306 1.876.306 1.152 0 2.496-.128 1.165-.111 1.705-.126l.151-.002.64.64-1.152 6.912c-.29 0-.579-.004-.868-.011q-1.269-.026-3.463-.118c-.476-.02-.953-.041-1.429-.063q-4.224-.192-8.32-.192a98.63 98.63 0 0 0-4.611.113c-1.13.053-2.26.122-3.389.207l-1.732.131q-2.171.166-3.266.264c-.19.017-.38.034-.57.053l.896-7.296q3.119-.374 4.536-1.721l.072-.071c.415-.426.742-.93.96-1.484q.275-.667.421-1.501c.085-.494.136-.994.155-1.495l1.408-38.144a9.593 9.593 0 0 0-.117-1.559q-.132-.798-.412-1.419a3.537 3.537 0 0 0-1.135-1.438 5.337 5.337 0 0 0-1.088-.589q-1.811-.757-5.361-1.224a51.534 51.534 0 0 0-.335-.043l-.896-1.024.768-6.4c.178.02.357.036.536.05q1.332.11 4.466.258l.246.012q4.096.192 7.552.192 3.712 0 6.784-.128 2.65-.11 3.776-.221c.107-.01.213-.022.32-.035q7.936 12.416 16.064 23.872 8.114 11.436 10.552 14.645l.008.011h1.152z"/>
<path style="stroke:#000;stroke-width:.94;stroke-dasharray:none;stroke-linecap:round;stroke-dashoffset:0;stroke-linejoin:miter;stroke-miterlimit:4;fill:#000;fill-rule:evenodd;opacity:1" vector-effect="non-scaling-stroke" transform="translate(14.03 207.05)" d="m349.824 84.608.768-7.424q4.352-.512 5.888-2.368 1.354-1.636 1.514-5.312c.015-.341.022-.683.022-1.024l.128-36.48a25.12 25.12 0 0 0-.035-1.384q-.115-2.071-.605-2.904a1.922 1.922 0 0 0-.909-.781q-.691-.307-1.779-.307l-3.072.128-.768-1.024.896-6.528c.389 0 .778.003 1.167.007q1.72.018 4.736.079c.656.013 1.313.027 1.969.042q5.824.128 12.48.128 22.656 0 32.256-1.152l.896 1.152c-.069.304-.132.609-.189.915q-.289 1.506-.737 4.409c-.098.636-.195 1.272-.29 1.908q-.832 5.568-1.216 11.456l-10.624.64q0-.314.085-1.183l.043-.417q.128-1.216.128-2.368 0-2.287-.591-3.477a2.898 2.898 0 0 0-.305-.491 3.084 3.084 0 0 0-.858-.737q-.827-.497-2.162-.779c-.145-.03-.29-.059-.436-.084q-2.56-.448-8.448-.448-2.808 0-3.884.338c-.141.041-.277.1-.404.174q-.682.42-.891 1.871a8.619 8.619 0 0 0-.069.689l-.64 14.464h9.472q2.304 0 6.528-.32l1.713-.131q2.158-.166 3.309-.264l.61-.053 1.024 1.152-1.536 9.216c-.266 0-.531-.003-.797-.007q-1.168-.018-3.194-.079l-1.321-.042q-3.904-.128-8.256-.128-3.456 0-7.936.64-.256 6.144-.256 12.544 0 2.816.384 3.968c.215.66.703 1.194 1.34 1.469.106.049.214.093.324.131q.972.34 2.976.422c.458.018.917.027 1.376.026q6.4 0 9.344-.832 2.944-.832 4.224-3.072c.266-.477.493-.975.679-1.488q.618-1.657 1.084-4.164a49.7 49.7 0 0 0 .285-1.708l9.728-.768L406.016 64c-.059.24-.113.48-.164.72q-.385 1.802-1.122 6.11l-.058.338a172.301 172.301 0 0 0-1.237 8.617c-.13 1.095-.251 2.19-.363 3.287l-1.152 1.152q-2.614-.105-10.225-.295l-3.663-.089c-3.336-.08-6.672-.144-10.009-.19q-4.747-.064-8.982-.066h-.273q-6.016 0-11.648.448l-2.274.181q-2.85.226-4.28.337l-.742.058z"/>
<path style="stroke:#000;stroke-width:.94;stroke-dasharray:none;stroke-linecap:round;stroke-dashoffset:0;stroke-linejoin:miter;stroke-miterlimit:4;fill:#000;fill-rule:evenodd;opacity:1" vector-effect="non-scaling-stroke" transform="translate(203.21 259.02)" d="M-7.616-2.364 7.232-17.596c.447-.442.86-.917 1.237-1.42a7.77 7.77 0 0 0 .905-1.54c.268-.599.41-1.247.418-1.904.004-.311-.04-.62-.131-.918A2.289 2.289 0 0 0 8.576-24.7a4.313 4.313 0 0 0-.863-.367 11.198 11.198 0 0 0-2.222-.325l-.435-.524 1.2-7.04c.297 0 3.917.17 4.368.192 2.688.128 5.355.192 8 .192 2.475 0 4.992-.064 7.552-.192.555-.028 1.11-.054 1.666-.08 1.67-.074 2.863-.112 3.582-.112l.896 1.152-.896 6.144c-2.219.939-4.373 2.325-6.464 4.16a47.046 47.046 0 0 0-2.104 1.976c-1.416 1.407-3.004 3.12-4.763 5.137-.294.337-.586.675-.877 1.015L7.616-3.26l13.056 19.456a45.821 45.821 0 0 0 1.873 2.62c1.345 1.738 2.62 3.062 3.823 3.972a11.211 11.211 0 0 0 6.08 2.24l.768 1.024-.896 5.888c-1.195.085-3.2.277-6.016.576-2.816.299-5.163.49-7.04.576-2.304 0-4.373-.661-6.208-1.984-1.328-.957-2.667-2.328-4.018-4.113a36.975 36.975 0 0 1-1.55-2.223L-7.872.068zm-21.12-23.04h-3.072l-.64-1.024.896-6.272 14.72.128c1.437 0 3.362-.05 5.775-.15.784-.033 1.569-.068 2.353-.106.184-.003.939-.045 2.266-.128.258-.016 2.564-.118 2.822-.136l-.494 7.176s-1.01.296-1.641.609c-.631.312-1.137.592-1.609 1.108-.472.517-.645.843-.837 1.28-.309.667-.495 1.517-.56 2.55l-.011.213-1.024 37.888c-.068 2.173.067 3.766.404 4.777.074.232.175.454.3.663.433.7 1.192 1.127 2.277 1.28.327.044.657.066.987.064 1.024 0 1.899-.043 2.624-.128.679-.08 1.115-.122 1.308-.127l.036-.001.512.768-.896 6.784c-.98 0-2.635-.029-4.966-.086l-1.626-.042c-3.2-.085-6.25-.128-9.152-.128-3.243 0-6.336.043-9.28.128-2.416.07-4.185.111-5.308.124-.215.002-.43.004-.644.004l1.024-6.912a25.4 25.4 0 0 0 1.928-.346c1.234-.275 2.212-.617 2.935-1.028.357-.194.681-.443.961-.738.292-.333.522-.715.68-1.128.315-.778.518-1.797.609-3.058.038-.545.056-1.092.055-1.638l.128-37.248c0-.431-.011-.863-.037-1.293-.087-1.411-.331-2.367-.731-2.867-.454-.568-1.311-.884-2.572-.948a9.866 9.866 0 0 0-.5-.012z"/>
<path style="stroke:#000;stroke-width:.94;stroke-dasharray:none;stroke-linecap:round;stroke-dashoffset:0;stroke-linejoin:miter;stroke-miterlimit:4;fill:#000;fill-rule:evenodd;opacity:1" vector-effect="non-scaling-stroke" transform="translate(13.2 207)" d="m229.376 84.352.768-7.04a26.59 26.59 0 0 0 2.044-.475q2.905-.808 3.972-2.021 1.408-1.6 1.408-5.824l.128-37.248c.001-.443-.013-.885-.042-1.327q-.138-1.985-.726-2.769c-.218-.28-.503-.5-.829-.641q-.702-.322-1.812-.373a9.403 9.403 0 0 0-.431-.01H230.4l-.512-1.024.64-6.272 15.232.128q2.156 0 5.888-.15c.81-.033 1.621-.068 2.432-.106q4.496-.209 6.515-.333l.781-.051-.64 7.296c-.572.072-1.142.162-1.709.268q-2.544.484-3.475 1.268c-.31.27-.566.599-.75.967q-.475.909-.664 2.35c-.023.174-.042.348-.058.523q-1.28 18.816-1.28 38.272 0 4.096.768 5.44.593 1.037 2.176 1.274c.34.049.681.072 1.024.07q1.118 0 1.976-.058c.26-.017.518-.04.776-.07.157-.019.314-.036.471-.053q.707-.075 1.001-.075l.64.768-.896 6.784c-.337 0-.675-.003-1.012-.007q-1.482-.018-4.04-.079l-1.668-.042q-4.928-.128-9.408-.128-2.552 0-5.709.151c-.999.048-1.997.105-2.995.169l-2.019.131q-2.533.166-3.831.264c-.226.017-.452.034-.678.053z"/>
<path style="stroke:#000;stroke-width:.94;stroke-dasharray:none;stroke-linecap:round;stroke-dashoffset:0;stroke-linejoin:miter;stroke-miterlimit:4;fill:#000;fill-rule:evenodd;opacity:1" vector-effect="non-scaling-stroke" transform="translate(455.26 258.32)" d="m-19.034 33.024.768-7.424c2.562-.202 4.564-.497 6.006-.886.35-.092.695-.203 1.034-.33.488-.182.95-.427 1.374-.73a4.242 4.242 0 0 0 1.506-1.958c.146-.397.26-.806.34-1.221.243-1.191.364-2.768.364-4.731v-38.656c-2.652.066-4.724.287-6.218.663a9 9 0 0 0-1.142.361 5.535 5.535 0 0 0-2.798 2.485 7.75 7.75 0 0 0-.466.971 14.998 14.998 0 0 0-.526 1.613s-.414 2.045-.528 2.965l-10.23.697c.108-1.608.222-3.345.34-5.211.299-4.736.49-9.195.576-13.376l1.28-1.28 10.88 1.152H16.55l11.136-1.152 1.28 1.28c.086 4.352.235 8.79.448 13.312.037.791.06.79.113 2.373.053 1.583 0 2.902 0 2.902l-10.08-.697c-.054-1.26-.4-2.786-1.04-4.578a7.866 7.866 0 0 0-.738-1.548c-.397-.631-.87-1.135-1.416-1.512a4.471 4.471 0 0 0-.855-.46 8.653 8.653 0 0 0-1.33-.402c-.928-.21-2.085-.364-3.47-.46a49.426 49.426 0 0 0-2.112-.098C7.964-15.464 7.641-5.69 7.518 6.41c-.038 3.922-.057 7.844-.056 11.766 0 2.053.294 3.606.881 4.661.115.208.248.404.4.587.4.467.91.828 1.484 1.049.422.172.9.298 1.434.379.517.075 1.039.111 1.561.108 1.099 0 2.087-.028 2.964-.083.207-.013.414-.028.62-.045 1.024-.085 1.664-.128 1.92-.128l.384.512-.896 7.552c-.421-.024-.842-.046-1.264-.066a539.665 539.665 0 0 0-6.672-.254c-3.84-.128-7.51-.192-11.008-.192-2.474 0-5.802.107-9.984.32l-2.542.131a855.024 855.024 0 0 0-5.778.317z"/>
</svg>